<svg width="391" height="168" viewBox="0 0 391 168" fill="none" xmlns="http://www.w3.org/2000/svg">
<rect x="24" y="52" width="24" height="64" rx="12" fill="#648FFF"/>
<rect x="56" y="34" width="24" height="100" rx="12" fill="#26C485"/>
<rect x="88" y="52" width="24" height="64" rx="12" fill="#E01E5A"/>
<rect x="120" y="68" width="24" height="32" rx="12" fill="#F6AE2D"/>
<path d="M207.04 74.16V100C207.04 102.133 207.493 103.653 208.4 104.56C209.307 105.413 210.88 105.84 213.12 105.84H218.48V112H211.92C207.867 112 204.827 111.067 202.8 109.2C200.773 107.333 199.76 104.267 199.76 100V74.16H194.08V68.16H199.76V57.12H207.04V68.16H218.48V74.16H207.04Z" fill="black"/>
<path d="M224.581 89.92C224.581 85.44 225.487 81.52 227.301 78.16C229.114 74.7467 231.594 72.1067 234.741 70.24C237.941 68.3733 241.487 67.44 245.381 67.44C249.221 67.44 252.554 68.2667 255.381 69.92C258.207 71.5733 260.314 73.6533 261.701 76.16V68.16H269.061V112H261.701V103.84C260.261 106.4 258.101 108.533 255.221 110.24C252.394 111.893 249.087 112.72 245.301 112.72C241.407 112.72 237.887 111.76 234.741 109.84C231.594 107.92 229.114 105.227 227.301 101.76C225.487 98.2933 224.581 94.3467 224.581 89.92ZM261.701 90C261.701 86.6933 261.034 83.8133 259.701 81.36C258.367 78.9067 256.554 77.04 254.261 75.76C252.021 74.4267 249.541 73.76 246.821 73.76C244.101 73.76 241.621 74.4 239.381 75.68C237.141 76.96 235.354 78.8267 234.021 81.28C232.687 83.7333 232.021 86.6133 232.021 89.92C232.021 93.28 232.687 96.2133 234.021 98.72C235.354 101.173 237.141 103.067 239.381 104.4C241.621 105.68 244.101 106.32 246.821 106.32C249.541 106.32 252.021 105.68 254.261 104.4C256.554 103.067 258.367 101.173 259.701 98.72C261.034 96.2133 261.701 93.3067 261.701 90Z" fill="black"/>
<path d="M288.643 52.8V112H281.363V52.8H288.643Z" fill="black"/>
<path d="M325.531 112L308.331 92.64V112H301.051V52.8H308.331V87.6L325.211 68.16H335.371L314.731 90L335.451 112H325.531Z" fill="black"/>
<path d="M339.503 89.92C339.503 85.44 340.409 81.52 342.223 78.16C344.036 74.7467 346.516 72.1067 349.663 70.24C352.863 68.3733 356.409 67.44 360.303 67.44C364.143 67.44 367.476 68.2667 370.303 69.92C373.129 71.5733 375.236 73.6533 376.623 76.16V68.16H383.983V112H376.623V103.84C375.183 106.4 373.023 108.533 370.143 110.24C367.316 111.893 364.009 112.72 360.223 112.72C356.329 112.72 352.809 111.76 349.663 109.84C346.516 107.92 344.036 105.227 342.223 101.76C340.409 98.2933 339.503 94.3467 339.503 89.92ZM376.623 90C376.623 86.6933 375.956 83.8133 374.623 81.36C373.289 78.9067 371.476 77.04 369.183 75.76C366.943 74.4267 364.463 73.76 361.743 73.76C359.023 73.76 356.543 74.4 354.303 75.68C352.063 76.96 350.276 78.8267 348.943 81.28C347.609 83.7333 346.943 86.6133 346.943 89.92C346.943 93.28 347.609 96.2133 348.943 98.72C350.276 101.173 352.063 103.067 354.303 104.4C356.543 105.68 359.023 106.32 361.743 106.32C364.463 106.32 366.943 105.68 369.183 104.4C371.476 103.067 373.289 101.173 374.623 98.72C375.956 96.2133 376.623 93.3067 376.623 90Z" fill="black"/>
</svg>
